<svg id="Layer_1" enable-background="new 0 0 512 512" height="512" viewBox="0 0 512 512" width="512" xmlns="http://www.w3.org/2000/svg"><g><path d="m233.393 116.263c1.377 1.089 3.017 1.616 4.646 1.616 2.215 0 4.409-.977 5.889-2.85 2.568-3.25 2.017-7.966-1.233-10.534-.033-.026-3.436-2.844-5.558-7.365-2.773-5.912-2.03-11.866 2.274-18.202 16.47-24.244.93-38.232-4.177-42.83-.403-.362-.761-.68-1.046-.961-2.946-2.907-7.695-2.879-10.606.071-2.909 2.948-2.877 7.697.071 10.606.423.417.947.895 1.545 1.432 4.866 4.381 10.922 9.832 1.805 23.252-14.235 20.954-2.045 39.099 6.39 45.765z"/><path d="m147.605 146.928c1.382 1.092 3.032 1.622 4.671 1.622 2.216 0 4.409-.971 5.886-2.839 2.568-3.25 2.038-7.949-1.212-10.518-.037-.029-3.682-3.039-5.786-7.806-2.554-5.781-1.749-11.603 2.459-17.796 16.47-24.242.93-38.231-4.177-42.829-.403-.362-.761-.68-1.046-.961-2.947-2.907-7.695-2.878-10.606.071-2.909 2.948-2.877 7.697.071 10.606.423.417.947.895 1.545 1.432 4.866 4.381 10.922 9.832 1.805 23.251-14.236 20.956-2.045 39.1 6.39 45.767z"/><path d="m498.041 373.374h-18.039c16.845-25.054 22.771-55.078 16.256-84.455-7.032-31.706-27.433-57.738-56.403-72.318l9.208-33.787c2.076-7.661 1.512-14.765-1.402-20.221l14.483-17.782c6.502 3.045 13.463 3.399 19.855.872 8.019-3.17 13.777-10.393 15.028-18.85 1.313-8.872-2.521-17.596-10.508-23.926-4.107-3.267-8.911-3.884-12.419-4.335-.953-.122-2.32-.298-3.024-.489-.357-.643-.855-1.968-1.203-2.891-1.246-3.313-2.953-7.851-7.118-11.158-13.771-10.899-28.671-6.896-36.272 2.695-6.279 7.921-7.613 19.901.178 29.897l-14.467 17.743c-6.012-1.669-13.156-.705-20.274 2.941l-68.957 35.335c-28.223-4.753-56.249-2.65-81.206 6.152-23.989 8.461-44.638 22.816-59.86 41.589-38.205 12.847-63.451 33.047-75.164 60.104-19.259 1.105-39.958 12.987-47.202 37.964-13.912 2.54-25.588 10.09-33.263 21.63-6.634 9.974-9.557 21.879-8.444 33.289h-3.866c-7.696.001-13.958 6.224-13.958 13.873v20.806c0 19.138 15.721 34.707 35.044 34.707h4.548v10.618c0 14.142 11.602 25.647 25.862 25.647h381.063c14.276 0 25.892-11.506 25.892-25.647v-10.618h4.52c19.339 0 35.072-15.569 35.072-34.707v-20.806c-.001-7.649-6.263-13.872-13.96-13.872zm-55.501-252.483c1.268-1.555 1.859-3.552 1.644-5.547-.216-1.994-1.222-3.818-2.793-5.066-6.537-5.19-5.784-10.909-3.152-14.229 2.76-3.483 8.399-5.64 15.199-.259.905.719 1.664 2.735 2.397 4.687 1.14 3.029 2.558 6.8 5.863 9.414 3.294 2.637 7.285 3.149 10.491 3.562 1.95.251 4.161.535 5.004 1.205 3.791 3.004 5.519 6.456 4.997 9.982-.462 3.123-2.701 5.908-5.705 7.096-3.46 1.367-7.491.437-11.345-2.624-3.217-2.551-7.886-2.045-10.479 1.138l-17.738 21.777-11.999-9.53zm-118.013 67.808 74.23-38.037c4.612-2.36 8.798-2.791 10.888-1.146l23.75 18.862s.001 0 .001.001l.003.002c2.048 1.625 2.502 5.651 1.188 10.499l-21.723 79.71c-7.397 27.208-25.724 47.887-50.28 56.733-20.879 7.521-43.65 5.289-59.434-5.829-18.418-12.959-28.888-34.912-27.321-57.292 1.805-25.787 19.1-48.34 48.698-63.503zm-285.769 159.693c6.072-9.131 15.834-14.712 27.485-15.716 3.323-.287 6.059-2.733 6.711-6.004 4.634-23.21 22.825-31.338 36.943-31.274 14.01.078 31.897 8.295 36.203 31.191.622 3.309 3.373 5.798 6.728 6.087 12.174 1.049 22.204 6.687 28.243 15.873 4.804 7.309 6.616 16.28 5.184 24.825h-69.22v-13.21c0-.013 0-.027 0-.041v-30.406c0-4.143-3.357-7.5-7.5-7.5s-7.5 3.357-7.5 7.5v18.751l-16.707-7.428c-3.784-1.683-8.216.021-9.9 3.807-1.683 3.785.021 8.217 3.807 9.9l22.801 10.137v8.489h-69.105c-1.168-8.398.898-17.57 5.827-24.981zm458.242 59.66c0 10.866-9.005 19.707-20.072 19.707h-284.067c-4.143 0-7.5 3.357-7.5 7.5s3.357 7.5 7.5 7.5h264.547v10.618c0 5.871-4.886 10.647-10.892 10.647h-381.062c-5.989 0-10.862-4.776-10.862-10.647v-10.618h101.197c4.143 0 7.5-3.357 7.5-7.5s-3.357-7.5-7.5-7.5h-120.745c-11.053 0-20.044-8.841-20.044-19.707v-19.678h11.963.113 302.952c4.143 0 7.5-3.357 7.5-7.5s-3.357-7.5-7.5-7.5h-128.641c1.32-11.478-1.367-23.306-7.781-33.064-7.665-11.66-19.61-19.294-34.016-21.859-5.798-20.646-20.999-32.372-36.98-36.421 11.055-21.259 33.227-37.413 66.081-48.09 1.423-.462 2.674-1.339 3.594-2.518 24.444-31.305 64.836-48.02 108.77-46.054-24.281 17.122-38.383 39.98-40.188 65.788-1.931 27.589 10.965 54.645 33.65 70.605 12.253 8.633 27.252 13.055 42.963 13.055 9.951 0 20.188-1.774 30.189-5.378 29.223-10.528 50.973-34.916 59.67-66.905l8.478-31.109c23.482 12.779 39.978 34.504 45.797 60.745 6.351 28.635-1.057 58.045-20.328 81.207h-98.356c-4.143 0-7.5 3.357-7.5 7.5s3.357 7.5 7.5 7.5h134.07z"/></g></svg>